<svg width="24" height="25" viewBox="0 0 24 25" fill="none" xmlns="http://www.w3.org/2000/svg">
<path fill-rule="evenodd" clip-rule="evenodd" d="M11.7529 2.5C6.08819 2.5 1.5 7.08819 1.5 12.7529C1.5 17.2899 4.4349 21.1219 8.51045 22.4804C9.02309 22.5701 9.21534 22.2625 9.21534 21.9934C9.21534 21.7499 9.20252 20.9425 9.20252 20.0838C6.62647 20.558 5.96003 19.4558 5.75497 18.8791C5.63962 18.5843 5.13979 17.6743 4.70404 17.4308C4.34519 17.2386 3.83254 16.7644 4.69123 16.7516C5.49865 16.7388 6.07537 17.4949 6.26762 17.8025C7.19038 19.3533 8.66424 18.9175 9.25378 18.6484C9.3435 17.9819 9.61264 17.5334 9.90741 17.277C7.62613 17.0207 5.24232 16.1364 5.24232 12.2147C5.24232 11.0997 5.63962 10.1769 6.29325 9.45918C6.19072 9.20286 5.83187 8.15193 6.39578 6.74215C6.39578 6.74215 7.25446 6.47301 9.21534 7.79308C10.0356 7.56239 10.9071 7.44704 11.7786 7.44704C12.6501 7.44704 13.5216 7.56239 14.3418 7.79308C16.3027 6.4602 17.1614 6.74215 17.1614 6.74215C17.7253 8.15193 17.3664 9.20286 17.2639 9.45918C17.9175 10.1769 18.3148 11.0868 18.3148 12.2147C18.3148 16.1492 15.9182 17.0207 13.6369 17.277C14.0086 17.5975 14.329 18.2126 14.329 19.1738C14.329 20.5452 14.3162 21.6474 14.3162 21.9934C14.3162 22.2625 14.5084 22.5829 15.0211 22.4804C17.0565 21.7933 18.8251 20.4852 20.0781 18.7402C21.3311 16.9952 22.0053 14.9012 22.0059 12.7529C22.0059 7.08819 17.4177 2.5 11.7529 2.5Z" fill="#9ba3b4"/>
</svg>
