<svg width="24" height="25" viewBox="0 0 24 25" fill="none" xmlns="http://www.w3.org/2000/svg">
<path d="M21.7999 8.23605C21.7074 7.47661 21.435 6.7502 21.0054 6.11715C20.751 5.83754 20.4419 5.61319 20.0972 5.45801C19.7525 5.30283 19.3796 5.22013 19.0016 5.21505C16.2026 4.99805 12.0044 4.99805 12.0044 4.99805H11.995C11.995 4.99805 7.79688 4.99805 4.99841 5.21505C4.62044 5.22017 4.24755 5.30289 3.90286 5.45806C3.55818 5.61324 3.24904 5.83757 2.99463 6.11715C2.56531 6.75035 2.29295 7.47668 2.20007 8.23605C2.07548 9.38272 2.00871 10.5349 2 11.6883V13.3063C2.00867 14.4599 2.07545 15.6123 2.20007 16.7592C2.29257 17.518 2.56498 18.2438 2.99463 18.8761C3.58854 19.4471 4.37604 19.7728 5.19971 19.7882C6.79956 19.9521 12 20.0028 12 20.0028C12 20.0028 16.2026 19.9953 19.0016 19.7808C19.3796 19.7748 19.7524 19.6915 20.0969 19.536C20.4415 19.3805 20.7507 19.1562 21.0054 18.8768C21.4347 18.2444 21.7071 17.5187 21.7999 16.76C21.9245 15.613 21.9913 14.4605 22 13.3068V11.6889C21.9913 10.5353 21.9245 9.38292 21.7999 8.23605ZM9.50232 16.2517V8.74923L15.7543 12.5004L9.50232 16.2517Z" fill="#9ba3b4"/>
</svg>
